<svg width="118" height="118" viewBox="0 0 118 118" fill="none" xmlns="http://www.w3.org/2000/svg">
<g id="ph:shield-warning-bold">
<path id="Shape" fill-rule="evenodd" clip-rule="evenodd" d="M22.3 16H96.7C101.826 16.025 105.975 20.108 106 25.1522V52.0138C106 94.2053 69.6835 108.162 62.383 110.542C60.5111 111.153 58.4889 111.153 56.617 110.542C49.3165 108.162 13 94.2053 13 52.0138V25.1522C13.0254 20.108 17.1743 16.025 22.3 16ZM59.5 99.9254C66.7075 97.4543 94.84 85.6022 94.84 52.0138V26.9826H24.16V52.0138C24.16 85.6022 52.2925 97.4543 59.5 99.9254ZM53.92 59.9304V41.6261C53.92 38.5933 56.4183 36.1348 59.5 36.1348C62.5817 36.1348 65.08 38.5933 65.08 41.6261V59.9304C65.08 62.9632 62.5817 65.4217 59.5 65.4217C56.4183 65.4217 53.92 62.9632 53.92 59.9304ZM52.06 78.2347C52.0582 80.1763 52.8451 82.0381 54.2455 83.4057C55.6352 84.7839 57.5271 85.5582 59.5 85.5565C63.609 85.5565 66.94 82.2784 66.94 78.2347C66.94 74.1911 63.609 70.913 59.5 70.913C55.391 70.913 52.06 74.1911 52.06 78.2347Z" fill="white"/>
</g>
</svg>
