<?xml version="1.0" standalone="no"?>
<!DOCTYPE svg PUBLIC "-//W3C//DTD SVG 20010904//EN"
 "http://www.w3.org/TR/2001/REC-SVG-20010904/DTD/svg10.dtd">
<svg version="1.0" xmlns="http://www.w3.org/2000/svg"
 width="200.000000pt" height="208.000000pt" viewBox="0 0 200.000000 208.000000"
 preserveAspectRatio="xMidYMid meet">

<g transform="translate(0.000000,208.000000) scale(0.100000,-0.100000)"
fill="#000000" stroke="none">
<path d="M1166 2015 c-21 -7 -44 -19 -50 -25 -6 -7 3 -5 21 4 41 21 60 20 66
-1 3 -11 5 -7 6 10 0 15 0 27 -1 27 -2 -1 -20 -7 -42 -15z"/>
<path d="M1265 2001 c50 -31 67 -57 75 -118 l7 -58 2 48 c0 26 -6 61 -14 77
-17 33 -61 70 -84 70 -10 0 -4 -7 14 -19z"/>
<path d="M1202 1920 c0 -14 2 -19 5 -12 2 6 2 18 0 25 -3 6 -5 1 -5 -13z"/>
<path d="M1240 1936 c0 -2 7 -9 15 -16 9 -7 15 -8 15 -2 0 5 -7 12 -15 16 -8
3 -15 4 -15 2z"/>
<path d="M1140 1923 c0 -5 7 -18 15 -29 13 -18 14 -18 8 4 -5 22 -23 41 -23
25z"/>
<path d="M1189 1848 c4 -28 6 -29 9 -9 2 13 0 27 -5 32 -6 6 -7 -3 -4 -23z"/>
<path d="M1230 1841 c0 -5 5 -13 10 -16 6 -3 10 -2 10 4 0 5 -4 13 -10 16 -5
3 -10 2 -10 -4z"/>
<path d="M1136 1824 c-8 -21 -8 -21 7 -27 10 -4 13 2 9 19 -5 28 -8 30 -16 8z"/>
<path d="M1180 1771 c0 -6 5 -13 10 -16 6 -3 10 1 10 9 0 9 -4 16 -10 16 -5 0
-10 -4 -10 -9z"/>
<path d="M352 1368 c-15 -15 -15 -55 0 -64 13 -8 61 42 55 59 -5 15 -42 18
-55 5z"/>
<path d="M175 779 c-40 -10 -84 -17 -117 -18 -23 -1 -28 -6 -28 -26 0 -31 4
-33 108 -38 l82 -4 -1 31 c-1 52 -10 64 -44 55z"/>
<path d="M281 562 c45 -74 78 -119 124 -168 26 -27 44 -43 40 -36 -7 13 -15
55 -18 84 -1 9 -5 14 -9 12 -4 -3 -8 2 -8 11 0 9 -11 27 -24 40 -13 13 -21 26
-18 29 3 3 -3 6 -13 6 -10 0 -27 10 -39 23 -12 13 -30 26 -40 30 -16 6 -15 3
5 -31z"/>
<path d="M760 398 c-19 -5 -40 -9 -47 -10 -18 -2 -34 -50 -32 -96 2 -23 -2
-47 -9 -54 -7 -7 -12 -21 -12 -32 0 -13 3 -17 8 -10 5 9 28 6 82 -9 66 -18
102 -21 305 -21 176 0 245 4 293 16 l62 15 0 -49 0 -48 -385 2 c-252 2 -385 0
-385 -7 0 -5 -3 -20 -6 -32 l-6 -23 453 2 c250 1 428 3 395 5 l-58 4 6 87 c4
48 9 114 12 148 l6 61 -33 9 c-19 4 -74 9 -124 11 -90 2 -161 7 -265 18 -30 3
-86 8 -125 11 -38 3 -77 6 -85 8 -8 1 -31 -2 -50 -6z"/>
<path d="M651 154 c0 -11 3 -14 6 -6 3 7 2 16 -1 19 -3 4 -6 -2 -5 -13z"/>
<path d="M325 83 c-56 -5 -87 -23 -38 -23 16 0 58 -3 92 -6 58 -7 61 -6 61 15
0 23 1 22 -115 14z"/>
<path d="M1710 70 c0 -5 23 -10 51 -10 31 0 48 4 44 10 -8 13 -95 13 -95 0z"/>
<path d="M458 43 c7 -3 16 -2 19 1 4 3 -2 6 -13 5 -11 0 -14 -3 -6 -6z"/>
</g>
</svg>
