<svg width="24" height="24" viewBox="0 0 24 24" fill="none" xmlns="http://www.w3.org/2000/svg">
<g id="ph:phone">
<path id="Shape" fill-rule="evenodd" clip-rule="evenodd" d="M3 7.50006C3 14.9438 9.05625 21.0001 16.5 21.0001C19.1409 20.9942 21.3695 19.0342 21.7125 16.4157C21.7859 15.7534 21.4218 15.1199 20.8125 14.8501L16.4156 12.9751C15.9544 12.7683 15.4191 12.8144 15 13.0969L12.6469 14.6626C11.2127 13.966 10.0516 12.8115 9.34688 11.3813L10.9031 9.00006C11.1836 8.58078 11.233 8.04812 11.0344 7.58443L9.15 3.18756C8.88016 2.5783 8.24666 2.21412 7.58437 2.28756C4.96586 2.63058 3.00582 4.85917 3 7.50006ZM4.5 7.50006C4.49875 5.61289 5.90011 4.0188 7.77187 3.77818L9.65625 8.17506L8.09062 10.5563C7.80368 10.9966 7.76811 11.555 7.99687 12.0282C8.84994 13.7708 10.2628 15.177 12.0094 16.0219C12.4842 16.2479 13.0426 16.2088 13.4812 15.9188L15.825 14.3532L20.2219 16.2282C19.9813 18.0999 18.3872 19.5013 16.5 19.5001C9.87473 19.4949 4.50517 14.1253 4.5 7.50006Z" fill="black"/>
</g>
</svg>
