<svg width="24" height="24" viewBox="0 0 24 24" fill="none" xmlns="http://www.w3.org/2000/svg">
<g id="ph:whatsapp-logo">
<path id="Shape" fill-rule="evenodd" clip-rule="evenodd" d="M3.61001 7.03182C5.36547 4.06755 8.55494 2.24974 12 2.25C16.0723 2.25056 19.7153 4.78198 21.136 8.59836C22.5568 12.4147 21.456 16.7122 18.3755 19.3756C15.2949 22.0389 10.8836 22.5073 7.31251 20.55L4.50001 21.3469C3.97803 21.4983 3.41502 21.3536 3.03072 20.9693C2.64641 20.585 2.50173 20.022 2.65313 19.5L3.45001 16.6875C1.79373 13.6667 1.85455 9.99608 3.61001 7.03182ZM7.79063 19.0969C9.06553 19.8504 10.5191 20.2486 12 20.25C15.743 20.2493 19.0164 17.7289 19.9739 14.1105C20.9315 10.4921 19.3331 6.68252 16.0804 4.83059C12.8277 2.97867 8.73585 3.54852 6.11294 6.21872C3.49004 8.88892 2.99338 12.9903 4.90313 16.2094C5.00645 16.3882 5.03348 16.601 4.97813 16.8L4.08751 19.9125L7.20001 19.0219C7.26719 19.0033 7.33656 18.9938 7.40626 18.9937C7.54093 18.9959 7.67299 19.0313 7.79063 19.0969ZM16.9219 13.4156L15 12.3188C14.5312 12.0489 13.9526 12.0561 13.4906 12.3375L12.375 13.0031C11.8059 12.6684 11.3316 12.1941 10.9969 11.625L11.6625 10.5094C11.9439 10.0474 11.9511 9.46881 11.6813 9L10.5844 7.07812C10.3361 6.64424 9.87491 6.37609 9.37501 6.375C7.5147 6.37499 6.00518 7.88033 6.00001 9.74062C6.00001 14.2985 9.69214 17.9948 14.25 18H14.2594C16.1197 17.9948 17.625 16.4853 17.625 14.625C17.6239 14.1251 17.3558 13.6639 16.9219 13.4156ZM9.47703 14.523C10.7452 15.7911 12.4659 16.5025 14.2594 16.5C15.2717 16.5003 16.0996 15.6933 16.125 14.6812L14.2594 13.6219L12.7969 14.5031C12.5852 14.6269 12.3269 14.6408 12.1031 14.5406C10.9242 14.0181 9.98189 13.0758 9.45938 11.8969C9.35916 11.6731 9.37313 11.4148 9.49688 11.2031L10.3781 9.74062L9.31876 7.875C8.30675 7.90044 7.49969 8.7283 7.50001 9.74062C7.49752 11.5341 8.20886 13.2548 9.47703 14.523Z" fill="black"/>
</g>
</svg>
